<svg width="57" height="57" viewBox="0 0 57 57" fill="none" xmlns="http://www.w3.org/2000/svg">
<path d="M14.5 51.8333C13.2166 51.8333 12.118 51.3764 11.2041 50.4625C10.2903 49.5486 9.83331 48.45 9.83331 47.1666V19.1667C9.83331 17.8833 10.2903 16.7847 11.2041 15.8708C12.118 14.9569 13.2166 14.5 14.5 14.5H19.1666C19.1666 11.9333 20.0805 9.7361 21.9083 7.90832C23.7361 6.08055 25.9333 5.16666 28.5 5.16666C31.0666 5.16666 33.2639 6.08055 35.0916 7.90832C36.9194 9.7361 37.8333 11.9333 37.8333 14.5H42.5C43.7833 14.5 44.8819 14.9569 45.7958 15.8708C46.7097 16.7847 47.1666 17.8833 47.1666 19.1667V47.1666C47.1666 48.45 46.7097 49.5486 45.7958 50.4625C44.8819 51.3764 43.7833 51.8333 42.5 51.8333H14.5ZM14.5 47.1666H42.5V19.1667H37.8333V23.8333C37.8333 24.4944 37.6097 25.0486 37.1625 25.4958C36.7153 25.943 36.1611 26.1666 35.5 26.1666C34.8389 26.1666 34.2847 25.943 33.8375 25.4958C33.3903 25.0486 33.1666 24.4944 33.1666 23.8333V19.1667H23.8333V23.8333C23.8333 24.4944 23.6097 25.0486 23.1625 25.4958C22.7153 25.943 22.1611 26.1666 21.5 26.1666C20.8389 26.1666 20.2847 25.943 19.8375 25.4958C19.3903 25.0486 19.1666 24.4944 19.1666 23.8333V19.1667H14.5V47.1666ZM23.8333 14.5H33.1666C33.1666 13.2167 32.7097 12.118 31.7958 11.2042C30.8819 10.2903 29.7833 9.83332 28.5 9.83332C27.2166 9.83332 26.118 10.2903 25.2041 11.2042C24.2903 12.118 23.8333 13.2167 23.8333 14.5Z" fill="#D70009"/>
</svg>
