<svg width="50" height="49" viewBox="0 0 50 49" fill="none" xmlns="http://www.w3.org/2000/svg">
<path d="M16.6667 36.75H33V32.6667H16.6667V36.75ZM16.6667 28.5833H33V24.5H16.6667V28.5833ZM12.5833 44.9167C11.4604 44.9167 10.4991 44.5168 9.69947 43.7172C8.89982 42.9175 8.49999 41.9563 8.49999 40.8333V8.16668C8.49999 7.04376 8.89982 6.08248 9.69947 5.28282C10.4991 4.48317 11.4604 4.08334 12.5833 4.08334H28.9166L41.1666 16.3333V40.8333C41.1666 41.9563 40.7668 42.9175 39.9672 43.7172C39.1675 44.5168 38.2062 44.9167 37.0833 44.9167H12.5833ZM26.875 18.375V8.16668H12.5833V40.8333H37.0833V18.375H26.875Z" fill="#A000FF"/>
</svg>
