<svg width="11" height="12" viewBox="0 0 11 12" fill="none" xmlns="http://www.w3.org/2000/svg">
<path d="M1.22222 11.7886C0.886111 11.7886 0.59838 11.6689 0.359028 11.4295C0.119676 11.1902 0 10.9025 0 10.5664V2.0108C0 1.67469 0.119676 1.38695 0.359028 1.1476C0.59838 0.90825 0.886111 0.788574 1.22222 0.788574H9.77778C10.1139 0.788574 10.4016 0.90825 10.641 1.1476C10.8803 1.38695 11 1.67469 11 2.0108V10.5664C11 10.9025 10.8803 11.1902 10.641 11.4295C10.4016 11.6689 10.1139 11.7886 9.77778 11.7886H1.22222ZM1.22222 10.5664H9.77778V2.0108H1.22222V10.5664Z" fill="#C5CEDE"/>
</svg>
