<svg width="63" height="63" viewBox="0 0 63 63" fill="none" xmlns="http://www.w3.org/2000/svg">
<path d="M28.9406 55.125V49.4812C26.6219 48.9562 24.6203 47.95 22.9359 46.4625C21.2516 44.975 20.0156 42.875 19.2281 40.1625L24.0844 38.1937C24.7406 40.2937 25.7141 41.8906 27.0047 42.9844C28.2953 44.0781 29.9906 44.625 32.0906 44.625C33.8844 44.625 35.4047 44.2203 36.6516 43.4109C37.8984 42.6016 38.5219 41.3437 38.5219 39.6375C38.5219 38.1062 38.0406 36.8922 37.0781 35.9953C36.1156 35.0984 33.8844 34.0812 30.3844 32.9437C26.6219 31.7625 24.0406 30.3516 22.6406 28.7109C21.2406 27.0703 20.5406 25.0687 20.5406 22.7062C20.5406 19.8625 21.4594 17.6531 23.2969 16.0781C25.1344 14.5031 27.0156 13.6062 28.9406 13.3875V7.875H34.1906V13.3875C36.3781 13.7375 38.1828 14.5359 39.6047 15.7828C41.0266 17.0297 42.0656 18.55 42.7219 20.3437L37.8656 22.4437C37.3406 21.0437 36.5969 19.9937 35.6344 19.2937C34.6719 18.5937 33.3594 18.2437 31.6969 18.2437C29.7719 18.2437 28.3062 18.6703 27.3 19.5234C26.2937 20.3766 25.7906 21.4375 25.7906 22.7062C25.7906 24.15 26.4469 25.2875 27.7594 26.1187C29.0719 26.95 31.3469 27.825 34.5844 28.7437C37.6031 29.6187 39.8891 31.0078 41.4422 32.9109C42.9953 34.8141 43.7719 37.0125 43.7719 39.5062C43.7719 42.6125 42.8531 44.975 41.0156 46.5937C39.1781 48.2125 36.9031 49.2187 34.1906 49.6125V55.125H28.9406Z" fill="#03AD51"/>
</svg>
